<?xml version="1.0" encoding="UTF-8"?>
<svg id="Ebene_2" xmlns="http://www.w3.org/2000/svg" version="1.1" viewBox="0 0 877.7 626.2">
  <!-- Generator: Adobe Illustrator 30.5.1, SVG Export Plug-In . SVG Version: 2.1.4 Build 3)  -->
  <defs>
    <style>
      .st0 {
        fill: #fff;
      }
    </style>
  </defs>
  <path class="st0" d="M135.2,248.2c-.8.2-1.5.3-2.3.5l.9,2.2,1.4-2.7Z"/>
  <path class="st0" d="M139,488.5c-.3-.9-1-1.4-2.2-1.4l-1.7.2c-1,.1-1.4.7-1.3,1.8l.2.8c.3,1,1,1.5,2.2,1.3l1.7-.2c1.2-.2,1.6-.8,1.3-1.8l-.2-.8Z"/>
  <path class="st0" d="M118.7,295.4l-.2-.8c-.8-.9-1.6-1.5-2.2-1.8-.4-.2-.7-.2-1.1-.2l-2.6.3c-.3,0-.5,0-.7.2-.4.2-.6.5-.6.9,0,.2,0,.4,0,.7l.7,2.3c.2.5.4.9.8,1.1.4.2.8.3,1.4.2l2.6-.3c1.5-1,2.2-1.9,1.9-2.7h0Z"/>
  <path class="st0" d="M175.7,330.5c-.3-.9-1-1.4-2.2-1.3l-2.6.3c-1,.1-1.4.7-1.3,1.8.3,1,1,1.5,2.2,1.4l2.6-.3c1.1-.1,1.6-.7,1.3-1.8h0Z"/>
  <path class="st0" d="M130.8,336.9c-.3-.9-1-1.4-2.2-1.3h-.9c0,.1.5,1.7.5,1.7l1.3,1.5c1.2-.1,1.6-.7,1.3-1.8Z"/>
  <path class="st0" d="M171.3,318.7h0c0-.2,0-.4,0-.7l-.5-1.6-2.8.4-1.6.2.5,1.6c.3,1,1,1.5,2.2,1.3h.9c.9-.2,1.3-.6,1.4-1.2Z"/>
  <path class="st0" d="M162.9,348.3c-.3-1.2.2-6.4,1.7-15.7l-.2-.8c-.8-2.6-3.8-4.9-9.2-7-7.8-9.8-14-14.5-18.5-13.9l-.5-1.6c2.3-.3,4.2-1.1,5.6-2.3.2-.9.3-1.7.5-2.5,0,0,0,0,0,0h0s0,1.3,0,1.3l5.8.3s0,0,0,0l4.2.2h0s0,0,0,0l-.2-2.9h0l-7.9-1.4c-.6,0-1,0-1.4.3,0,0,0,0,0,0,1-2.8,2.4-5,4.3-6.4h0s-1.8-2.1-1.8-2.1l-3.1-3.8-.7-.8-.4-.5-1.4-.7-9.3-4.3c-2.4-2.9-4.8-5.8-7.2-8.7-.7-.6-1.4-1.2-2-1.7-1.6-1.4-3.2-2.7-4.9-4.1-2.2-1.8-4.4-3.6-6.6-5.3-1.5-1.2-3.1-2.3-4.7-3.5,1.1-.4,2.3-.7,3.4-1.1-.5-.4-.7-.7-.8-.9l-1.1-3.9-1.7.2-2.2,3.9-.7,1.3-17-2.7c-.9.6-1.9,1-3.2,1.2l-1.6.2h-1c0,.1-4.2-1.8-4.2-1.8h0l-2.6.3c-1.1,1-2.2,2-3.2,2.8-.3.3-.6.5-1,.8-2.7,2.1-4.9,3.3-6.4,3.5h-.9c0,.1-5-1.7-5-1.7-2.6.3-4.8,2-6.7,4.9-11.5,6-16.4,11.8-14.8,17.3-2.2,1.8-3.3,6.2-3.3,13.4,2.4,5.1,4,7.6,4.9,7.5,7.1,12.6,13.4,18.6,18.7,18l1.7-.2,2.8-2.8h.9c0-.1,3.3,1.9,3.3,1.9,2,6.8,5.9,9.8,11.7,9.1,5.6-.7,9-2.5,10.2-5.3l10.4-1.3c.6,2.2,5.1,4.1,13.3,5.6l2.6-.3c1.9-1.3,2.9-3.1,3-5.2,14.9,1.5,23.5,6.4,25.9,14.6l.5,1.6c.3,1-.1,1.6-1.3,1.8.4,4.3-1.1,6.6-4.2,7-3.5.4-6.6,3.3-9.2,8.5-4.4-.5-6.8-.8-7.4-.7l-5.2.7c-4.9,3.9-7.9,5.9-9.1,6h-.9c-1,.2-1.8-.2-2.2-1.2-8.8.7-13.5,0-14.2-2.3-13.2-4.2-20.5-8.4-21.7-12.7-5.5-2.3-8.5-4.4-9-6.2,1.5-1,2.1-1.9,1.9-2.7l-.2-.8c-.6-1-2.3-1.9-5.3-2.6l-3.2,1.2c-3.9,2.7-5.5,7.5-4.8,14.4l.5,1.6c.4,1.4,1.5,2.9,3.1,4.5.6,3.7.3,5.7-1,5.8-2.6-1.3-4.9-1.8-6.8-1.6h-.9c-1,.2-1.4.8-1.3,1.9.4,1.4,3.6,2.1,9.6,2,.3,1,.2,2.7-.4,4.9.6,0,1.7,2.6,3.2,7.7,1.4,4.7,6.5,7,15.5,7,.9-.1,4-2.9,9.2-8.5,5.8,2,9.4,2.9,10.7,2.7,1.7-.2,3.7-.7,5.8-1.5,5.7,2.1,11.1,3.1,16.2,2.9-.2-.7,1.4-1.4,4.8-2.2l6.1,2.5c4.1-.5,7.1-1.4,9.1-2.8,5.2.4,8.6.5,10,.4,1.6-.2,5.4-2.6,11.4-7.1.6,0,1.5,0,2.8.5,1.7-.2,6-6.2,12.8-17.8-.2-.5-1-2.6-2.7-6.2h0ZM46,281l-2-.6c-.3-.9.2-1.5,1.3-1.8h.9c0-.1.2.7.2.7l-.4,1.7ZM79.3,327.1l.4-1.7c1.2-.1,1.9.3,2.2,1.3l-2.6.3ZM115,301.5l-11.3,1.4c-11.1,4.6-17.9,7.1-20.3,7.4l-2.4-2.1c-1.5.2-3.7.7-6.7,1.6-5.4-4.7-8.5-7-9.2-7l-1.7.2-2.2,1.9h-.9c-1.9.3-4.1-.2-6.8-1.5l1.2-5-2.6-2.9c-.5-1.6.4-2.8,2.6-3.6,3.3.1,6,0,8-.2,1.7-.2,2.8-3.9,3.1-11,1-.1,3.5,0,7.4.7,8.1-1,11.8-2.8,11-5.4,4.8.4,9.1.4,12.9,0,.5,0,1,0,1.5-.2,1.9,1.6,3.6,2.9,5.2,3.9.5.3,1,.6,1.5.9,2,1.1,3.7,1.7,5.1,1.8,3.4.3,9.3,4.4,17.6,12.3,1.4,1.4,2.9,2.8,4.4,4.4-.1,3.7.1,6.6.8,8.8-7.3-.3-13.4-2.5-18.2-6.7ZM58.8,374.4h0s-.9-3.1-.9-3.1h.9c0-.1.9,3,.9,3h-.9Z"/>
  <path class="st0" d="M117.8,246c-.3-.9-1-1.4-2.2-1.3l.5,1.6,1.7-.2Z"/>
  <path class="st0" d="M356.4,445l-.6-7.8h0s-1.1,0-1.1,0c-1.3,0-2,.6-2.1,1.9v1c0,0,1.5,5,1.5,5h2.2Z"/>
  <path class="st0" d="M280.4,450.1c0-1.1-.9-1.8-2.4-2.1l-3.2,1.8,1.8,9.8.4,4.9c0,1.3.9,2,2.4,2.1s2.2-.5,2.1-1.8h0l-1.1-14.7Z"/>
  <path class="st0" d="M293,243c.7,2,3,3.1,6.9,3.3,5.6.3,8.5-.6,8.7-2.5-1.3-2-2.4-3-3.5-3.1h-2.3q0-.1,0-.1l-.7-3.2c-.3-1.4-1.3-2.9-2.8-4.5.8-2.1.9-4.2.4-6.4l-.7-3.1c-1.2-1.5-2.3-2.2-3.2-2.1h-.9c-1,.2-1.5.8-1.4,1.8l1,4.7c.4,1.6,1.7,3.6,4.1,6-.8,0-.9,2.3-.2,6.7h-2.1c-2.2.8-3.2,1.7-3.1,2.7Z"/>
  <path class="st0" d="M275.4,245.1c3.7.2,5.8-.7,6.5-2.6v-1h0c0-1.1-.9-1.8-2.4-2.1l-4.4-.2c-1.3,0-2,.5-2.1,1.8v1c0,0,2.5,3,2.5,3Z"/>
  <path class="st0" d="M332.1,263.4c1.5,0,2.2-.5,2.1-1.9h0s0-1,0-1h-2.2c0,0-2.2.8-2.2.8,0,1.3.9,2,2.4,2.1Z"/>
  <path class="st0" d="M265.7,476.7l1.2,2c1.5,0,2.2-.5,2.1-1.9l-3.3-.2Z"/>
  <path class="st0" d="M303.4,111.8h2.2c0,.1-.2-2.8-.2-2.8h-2.2c0-.1-2.1.8-2.1.8,0,1.3.9,2,2.4,2.1Z"/>
  <path class="st0" d="M250.1,445.7c0-1.1-.9-1.8-2.4-2.1l.2,2.9h2.2c0,0,0-.9,0-.9Z"/>
  <polygon class="st0" points="249.2 463.2 249.3 464.2 251.5 464.3 251.4 463.3 249.2 463.2"/>
  <path class="st0" d="M259,414.9h-2.2c0-.1-2.2.8-2.2.8,0,1.3.9,2,2.4,2.1h2.2c0,.1-.2-2.8-.2-2.8h0Z"/>
  <polygon class="st0" points="233.5 307.4 233.7 310.3 241.4 310.7 241.2 307.8 233.5 307.4"/>
  <path class="st0" d="M155.7,319.2h1.1c2.2-.8,3.2-1.7,3.1-2.7-1.2-2-2.4-3-3.5-3.1h-1.1c-2.2.8-3.2,1.7-3.1,2.7,1.2,2,2.4,3,3.5,3.1Z"/>
  <polygon class="st0" points="307.9 311 308.1 313.9 311.4 314.1 311.2 311.1 307.9 311"/>
  <polygon class="st0" points="287.1 430.6 287.7 432.9 289.4 432.8 288.9 430.4 287.1 430.6"/>
  <path class="st0" d="M378.1,413.6l-1.8.2-1.6.9c.2,1,.9,1.5,2.1,1.4l1.8-.2,1.6-.9c-.2-.9-.9-1.4-2.1-1.4Z"/>
  <path class="st0" d="M396,412l-1.8.2.2.8c.2,1,.9,1.5,2.1,1.4l1.6-.9c-.2-.9-.9-1.4-2.1-1.4Z"/>
  <path class="st0" d="M479.3,405.3c-.2-.9-.9-1.4-2.1-1.4l-4.5.4c-1,.1-1.5.7-1.4,1.7,1.2,1.5,2.3,2.2,3.2,2.1l3.6-.3c1.2-.1,1.7-.7,1.4-1.7l-.2-.8Z"/>
  <polygon class="st0" points="287 421.8 285.2 422 285.5 423.6 287.3 423.4 287 421.8"/>
  <path class="st0" d="M496.1,403h-.9c0,0-1.6,1-1.6,1,.2,1,1,1.5,2.1,1.4h.9c0,0-.5-2.4-.5-2.4h0Z"/>
  <path class="st0" d="M305,258.5l-2.7.2c-1,.1-1.5.7-1.4,1.7l.7,3.1c2,2,3.4,2.9,4.3,2.8h.9c1.6-1,2.3-1.9,2.2-2.7l-.7-3.1c-1.2-1.5-2.3-2.2-3.2-2.1Z"/>
  <path class="st0" d="M357.6,362.9c1,0,2.4-.8,4.1-2-2-1.9-3.4-2.9-4.3-2.8h0l-4.5.4c-1,0-1.5.7-1.4,1.7l.2.8c.2,1,2.2,1.7,5.9,1.9Z"/>
  <polygon class="st0" points="470.2 461.9 470.7 464.2 473.3 464 472.8 461.6 470.2 461.9"/>
  <path class="st0" d="M289.3,193h.9c1.2-.2,1.7-.8,1.4-1.8h0l-.3-1.6c-1.2-1.5-2.3-2.2-3.2-2.1-1,0-1.5.7-1.4,1.7l.5,2.4c.2,1,.9,1.5,2.1,1.4Z"/>
  <polygon class="st0" points="453.2 390.5 453.2 390.5 453.2 390.5 453.2 390.5"/>
  <path class="st0" d="M463.5,390.6h0-1.7c-1.6.7-2.4,1.5-2.3,2.2l1,1.5c2.9,0,4.5-.7,4.9-2.2,0-.9-.7-1.4-1.9-1.5Z"/>
  <path class="st0" d="M550.5,251.6h1.7c1.1,0,1.7-.5,1.5-1.5h0c-.1-.9-.7-1.4-1.9-1.5h-1.7c-1,0-1.5.5-1.5,1.5.1,1,.7,1.5,1.9,1.5Z"/>
  <path class="st0" d="M610.8,391.6l-1.6.7c.1,1,.8,1.5,1.9,1.5h.8l-.3-2.3h-.8Z"/>
  <path class="st0" d="M573,304.6l17.1,1.4,4.5-.4v-2.4q0,0,0,0c-2.8-.2-5.8-.7-9-1.5-1.2,0-3,.3-5.3,1.1-.5,0-2.9-.5-7.2-1.3-1,0-1.6.4-1.7,1.4,0,1,.7,1.6,1.8,1.7Z"/>
  <polygon class="st0" points="580.2 331.9 580.1 331.1 578.3 330.9 578.4 331.7 580.2 331.9"/>
  <path class="st0" d="M760.4,392.5h0-.9c-1-.2-1.6.3-1.8,1.4,0,1,.7,1.6,1.8,1.7h.9c1.2.2,1.8-.3,1.7-1.4,0-.9-.6-1.5-1.8-1.7Z"/>
  <path class="st0" d="M611,370.5h0c0-.9-.7-1.5-1.8-1.7h0c-1,0-1.6.4-1.7,1.4,0,.8.4,1.3,1.1,1.6.2,0,.5.1.8.2,1.2,0,1.8-.4,1.8-1.4Z"/>
  <path class="st0" d="M699.6,367.3h0s-1.8-.2-1.8-.2v2.4c0,0,1.9.1,1.9.1l1.8-.7c0-.9-.7-1.5-1.8-1.7Z"/>
  <path class="st0" d="M742.2,268.5l3.5-.3c1.2,0,1.6-.7,1.4-1.7-1.2-1.5-2.3-2.2-3.2-2.2h-1.8c-1.6,1.1-2.3,1.9-2.1,2.7.2,1,1,1.5,2.1,1.4Z"/>
  <path class="st0" d="M704.5,272.3c1.6-.9,2.3-1.8,2.1-2.6l-.2-.8-2.3-2.2c-7.8,1.7-12.1,2.5-12.8,2.6-1.3.1-2.6,0-3.7-.5l-6.7,2.1c.5,2.1,8.3,2.6,23.6,1.4Z"/>
  <path class="st0" d="M736,419h-.9c0,0,.6,2.4.6,2.4h.9c0,0,1.6-1,1.6-1-.2-.9-.9-1.4-2.1-1.4Z"/>
  <path class="st0" d="M747.9,346.7h0c4.6-.9,6.7-1.9,6.5-2.9l-.2-.8c-.2-.9-.9-1.4-2.1-1.4h-.9c-1.9.2-3.8,1.2-5.6,2.9l2.3,2.2h0Z"/>
  <polygon class="st0" points="818.7 316.3 816.1 316.5 816.6 318.9 819.2 318.7 818.7 316.3 818.7 316.3"/>
  <path class="st0" d="M734.6,474.5h-1.8c-1,.2-1.5.8-1.4,1.9.2,1,1,1.5,2.1,1.4l3.5-.3-.4-1.6c-.2-.9-.9-1.4-2.1-1.4Z"/>
  <path class="st0" d="M696.8,327.5c-1.2-1.5-2.3-2.2-3.2-2.2l-2.6.2c-1.6.9-2.3,1.8-2.1,2.6.2.8,1.5,1.5,4.1,2.1,2.8-.6,4.1-1.5,3.8-2.7h0Z"/>
  <polygon class="st0" points="832.9 389 833.5 391.4 835.2 391.3 834.7 388.9 832.9 389"/>
  <polygon class="st0" points="858.3 349.5 858.3 349.5 858.3 349.5 858.3 349.5"/>
  <path class="st0" d="M877.7,322.7c-4.5-.3-11.9-1-19.5-1.7,1.1-4.4,2.3-8.8,3.3-13.2-.6-4.6-1.4-11.2-2.1-16.2v-6.4c.1,0,.2-7.3.2-7.3v-.9c-.7-5.1-1.4-10.3-2.2-15.4l-2.5-17.1c-7.8,2-20.8,5.2-28.9,7.4-5,.5-10.1,1-15.1,1.6-4.6,2-9.2,4-13.7,6.1-3.2.6-6.5,1.3-9.9,1.9-.5-.3-.9-.4-1.3-.4h-.1l-7,.5c-9.2,1.4-13.7,2.8-13.3,4.2v.4c-1.6.4-3.6.9-5.3,1.4-1.7.4-3,.8-3.4.8l-12.7,6.4,1-.3-13.3,4.6h.6c-2.3.4-4.6.9-6.9,1.4h0c-.1-.8-.2-1.5-.4-2.3,0-2-.2-4.1-.2-6.1h0c2.9-.2,4.5-1.2,4.7-2.8l-.4-1.6-2.3-2.2c-.9,0-1.7.2-2.3.4h0l-.2-.7-2.2-10,1.4-11.6v-1.2c0,0-.3-12-.3-12l-.2-.8-1.3-11.9.2,1.2v-11.9s0-1,0-1c-.3-4-.7-7.9-1-11.9v.9c0-7.8-.1-15.5,0-23.3-.5-4.5-.9-9-1.4-13.4-.9-3.6-1.7-7.2-2.6-10.8,0-3.3,0-7.2,0-10.5v-1.8c-2.4-9-13-44.5-15.7-54.5-3.6,8-17,37.2-21.8,48.1-2.6,3.1-5.7,6.8-8.1,9.6l-.7,1.5-2.5,5.7-2.3,5.4c-4.1,6.7-8,13.6-11.4,20.6l-.9,1.8c-1.3,3.9-2.5,7.9-3.8,11.9-1.7,2.8-3.3,5.6-4.9,8.4l-.8,1.2-4.8,11.5.6-1-6.2,10.9-.5.7c-3.4,7.6-6.7,15.3-10.2,22.8l-.4.9h0c-.9,4.1-1.8,8.2-2.8,12.2-3.9,7-7.8,14.1-11.6,21.2-.3.4-.9,1.2-1.6,2.1-2.3-.6-4.7-1.3-7-1.9h0l-.3-.5c-.6-1.8-3.3-10.8-3.5-11.4h0s-2.2-12.2-2.2-12.2v-.5c0,0-.3-.3-.3-.3l-7.9-9.7-3.1-11.6c0,0,0-.2-.1-.3l-5.4-10.8-1.3-12.4v-.2s-.1-.2-.1-.2l-5.4-11s0-.2,0-.2l-7.1-10.2c-.5-1.4-3.7-11.6-3.7-11.6-2.3-5.7-7-17-9.5-22.7-2-6.7-6.1-19.2-8.4-26.1l-.5,2.9c0,0-2,12.2-2,12.2,0,.2.7,11.1.7,12.3-.2,1-2.5,12-2.5,12.1,0,0,0,12.3,0,12.3h0c0,0,1.6,12.3,1.6,12.3-.3,1.2-2.8,12-2.8,12.1,0,0,.2,11.4.2,12.3-.2.8-2.2,12.1-2.2,12.1,0,5.6-.3,12.8-.2,18.5-.1,3.4.1,8.2.4,12.5-.6-.2-1.3-.5-2-.7-8.5-2.3-19.2-4.8-26.7-6.5-8.6-2.7-18.4-5.7-27-8.1-2.6,4-5.7,8.3-8.3,12.8l.5-.9c-3.7,3.4-7.4,6.8-11,10.3l-.3.2c-1.4,3.3-3.1,7.5-4.6,11.3l-3.8-.7c-.9-.6-10.6-6.4-10.6-6.4,0,0-2.9-.9-5.8-1.8,0-.6.2-1.2.2-1.9l-2.8-1.5c-1,0-1.5.5-1.5,1.5v.8c-.9-.3-1.7-.5-1.9-.6,0,0,0,0,0,0-.8-.4-10.8-5.9-10.8-5.9-5.3-1.8-12.1-4.2-17.5-5.9-4.9-1.8-12.8-3.7-17.7-5-.4-.1-11-4.1-11.3-4.2h0l-10.4-6.8h-.1c0,0-.1,0-.1,0l-12-2.8-10.6-5.2.3-11.3s0-.2,0-.2l-1.9-11.5-.9-11.4.6-8.6c.6-8.5.5-17.7.5-26.3h0c0-.1-1.9-10.2-2.2-11.4l.4-11.5h0c0-.1,0-.3,0-.3l-2.1-11.3-1.1-11.3,1.6-11.5v-.2s0-.3,0-.3l-1.6-12.3-.9-6.7c-2.7,5.9-5.6,12.2-8.4,18.1-4.1,6.9-9.8,15.5-15.7,22.2-2,2.3-4.1,4.6-6.2,6.9l-.5.9c-1.9,3.7-3.9,7.3-6,10.9l.4-.8c-1.5,2-3.1,4.1-4.7,6.1-2.1,2.7-4.4,5.5-6.7,8.3-.9-1-1.8-1.5-2.5-1.5s0,0-.1,0c-1,0-1.5.7-1.4,1.7l.2.8c.2,1,.8,1.4,1.8,1.4-2,2.3-3.9,4.6-5.9,6.7-4.1,4.3-8.6,10-12.4,14.5-2,2.3-4.2,4.7-6.2,7-1.1-2.4-2.2-4.8-3.3-7.2.2-4.2.3-8.4.4-12.5-2-3.7-4-7.4-6-11.1,0-4.2,0-9.8.1-10.8l-.3-.8-3.8-11.5-4.3-11.3v.7c.1,0-3.2-11.3-3.2-11.3l-.8-10.5v-1.4c0,0-.2-.2-.2-.2l-3.7-11.3c-1.5-3.8-3.3-7.5-4.9-11.3-1.1-7.5-1.9-15.1-2.4-22.7v-.7c0,0-.2-.4-.2-.4-1.8-3.6-3.6-7.2-5.3-10.8-.8-3.2-2-8.2-2.7-11.2-.2-5.7-.8-20-1.1-27.4l-3.3,15.8c-.6,2.7-1.9,9-2.5,11.7-.3,2.1-.6,4.1-.9,6.2l-1,6c-3.1,10.1-6.6,22.9-9,34.4-1.7,2.8-4.8,8-6.3,10.6l-.5,1.5-3.5,11.8v1.7c0,0-.8,10.2-.8,10.2-1.4,3.7-2.8,7.5-4.2,11.2-.5,2.7-1.4,6.8-2.1,10.3-2.4,3.8-4.7,7.7-7,11.6-.5,4.7-.9,9.6-1.3,14.4-.1.5-.2,1-.4,1.5l-1.9-1.5-8.1-7.2c-2.2-2.3-8.4-8.9-9.4-9.9-3.9-2.3-7.9-4.7-11.9-6.9l-8.4-5.5c-2.1-2.5-4.3-5-6.4-7.5l-2.1-2.4-1.8-1c-3.4-1.8-6.8-3.6-10.2-5.3-2.8-2.3-5.7-4.7-8.5-7l-5-3.5-5.1-3.4-.9-.6c-3.5-1.9-7-3.8-10.5-5.6-3.4-2-6.9-4-10.3-6l.7.6c-5.9-4.9-12.3-6.5-19.7-6.6-.1,2.1-.4,4.7-.3,7.7.2,4.3,1.5,8.3,3.6,11.9,0,.2.2.3.2.3l1.2,1.9,2.4,3.9,2.4,3.9c.8,1.3,1.7,2.5,2.5,3.8l5,7.4,4.8,10.6.2.5,6.3,10.8,6.6,10.4,4.8,10.9c5.5,10.7,11.7,22.2,17.9,32.5l2.8,11.9v.2c1.8,3.9,3.6,7.8,5.3,11.7,0,0,1,1.5,2.2,3.5-4.2,1.6-8.4,3.2-12.2,4.7-4.5,1-9,2-13.5,3-8.9,2.8-17.7,6.1-26.2,9.8-4.4,1.2-8.7,2.5-13.1,3.7-2.9,1.1-6,2.3-9.2,3.5h-1.6c.2.2.4.3.6.4-5.5,2.2-11,4.4-15.4,6.3-8.6,2.8-18.3,6-26.7,9,.2,4.8.1,10.1.7,15.2v-1c-1.2,4.9-2.2,9.8-3.1,14.8v.3c1,5,2.6,11.6,3.8,16.6l-.3-.9c.5,4,1,8.1,1.6,12.1-.7,4.8-1.5,9.6-2.1,14.5v.9c1.1,5.7,2.3,11.5,3.6,17.3l-.2-.9c1.2,8.6,2.6,17.2,4,25.8-.8,5.3-1.5,10.6-2.3,15.9l.9,3.3c.8,3,2.3,8.7,3.3,12.5.4,3.8,1,10.2,1.4,13.6v1c.1,0,.5,1.4.5,1.4,2.4,8.5,6.1,21.5,8.5,30.2,7.4-3,19.8-7.8,27.5-11,5-1,10-2.2,14.9-3.4l1.3-.8c3.8-2.3,7.6-4.7,11.4-7.1,8.9-2.8,18.5-5.9,27.1-9.1,1.5-.6,10.7-4.1,12-4.6l11.7-8.1-1,.4,12.6-6.2-.6.2c13.2-4.5,26.8-9.4,39.8-14.2,2.2-1,4.3-2.1,6.5-3.1,0,.8,0,1.3,0,1.3v.6s.8,12.1.8,12.1h0c0,0,.2.9.2.9l2.7,12,2.8,10.5v11.7c.5,4.3.8,8.6,1.2,12.9,1.3,4.3,2.6,8.7,3.9,13l-.3-.9c1.5,7.2,2.9,14.3,4.2,21.5-.4,4.2-.7,8.3-1.1,12.5l.3,1.7c.8,4.1,1.6,8.2,2.4,12.2,2.7,9,10,31.6,13,41.2,3.7-8.9,13-29.9,16.4-39l.4-1.2c.4-2.1.9-4.2,1.3-6.3.5-2.4.9-4.9,1.3-7.3,0-3.7,0-7.4,0-11.1,1.4-3.5,2.8-7,4.1-10.5h0c0-.1,1-12,1-12v-.6c.1,0,0-12,0-12v.6c.2-2.9.6-5.9,1-8.8.7-5.9,2.2-11.6,3.1-17.4.5-2.6,1-5.2,1.5-7.8.3,0,.6.1.9.2,1.5,0,2.2-.5,2.1-1.9v-1c-.1-.9-.6-1.5-1.5-1.8.2-.5.4-1.1.6-1.7.5-1.3.9-2.5,1.4-3.8,3.1.8,6.7,1.8,9.6,2.5,3.6.5,9.3,1.2,11.8,1.6,7.5,1.9,15.6,4.2,22.8,6.6,4,.6,7.9,1.2,11.8,1.9,3.8,1.1,7.6,2.2,11.5,3.3h1.1c0,.1,10.2,1.2,10.2,1.2l10.5,4.9,1.1.3,11.4,3.5h.8c0,.1,11.7,2.6,11.7,2.6l-1.2-.2,11.3,3.8.9.2c3.9,1,7.7,1.8,11.6,2.8l-.9-.2c7.4,2.3,14.8,4.6,22.2,7.1,4.4.9,8.8,1.9,13.2,2.8,2.5.2,5,.4,7.5.6-.2.1-.3.2-.3.2-3.2,2.6-6.1,5.5-9.2,8.1-6.8,3.4-13.8,6.5-20.8,9.4l-.6.3-.3.3c-2.8,2.8-5.7,5.6-8.6,8.4-2.8,1.7-7.2,4.4-9.8,6-4.1,1.5-12.9,4.8-19.9,7.4l-.3-.6c-.8,0-1.5.4-1.9,1.4-1.3.5-2.5.9-3.6,1.3l3.3-.4c-.3,1.1-.5,2.6-.5,4.5s0,2.3.2,3.7c.1,2,.9,3,2.4,3,1.5,0,2.2-.5,2.1-1.8l-.7-9.8,9.2-1c2.8-.3,9.2-1,11.9-1.2,2.1-.4,4.1-.7,6.2-1l6-1c10.6-.2,23.8-.9,35.4-2.1,3.2.7,9.1,2,12.1,2.7h1.6s12.2-.4,12.2-.4l1.7-.4,9.9-2.5c4,.2,8,.4,12,.5,2.7-.4,7-.8,10.5-1.2,4.4,1.1,8.8,2,13.2,3,4.6-1,9.4-2.1,14-3.2.5,0,1.1,0,1.6-.2l-.7,2.2-4.3,9.9s0,0,0,0c-1.4,2.7-5.9,10.9-6.5,12.1-1,4.5-2,9-2.9,13.4l-2.6,9.8c-1.7,2.8-3.4,5.6-5.1,8.4l-1.7,2.8-.3,2c-.6,3.8-1.3,7.6-1.9,11.4-1.3,3.4-2.7,6.8-4,10.3l-1.7,5.8-1.7,5.9-.3,1c-.7,3.9-1.4,7.8-2,11.8-.8,3.9-1.7,7.8-2.5,11.7l.3-.9c-2.8,7.1-2.3,13.7,0,20.8,2-.5,4.5-1.1,7.4-2.1,4-1.5,7.4-4.1,10.2-7.2.1-.1.2-.2.3-.3l1.5-1.8,2.9-3.5,3-3.5c1-1.1,1.9-2.4,2.8-3.6l5.5-7.1,8.5-7.8.4-.4,8.3-9.3,7.8-9.5,8.9-7.9c8.4-8.5,17.4-18,25.3-27.1l10.5-6.4h.2c3.1-3,6.3-5.9,9.5-8.8,0,0,7.3-8.9,7.7-9.4,0,0,0,0,0,0,2.7-2.7,6.2-6.3,8.6-8.6l6.4-5.6c1.4,2.4,2.9,5,3.7,6.9,3,7.3,4.9,15.2,6.7,22.9l-.3-1c.2,4,.5,8.1,1,12.1,1.3,4.2,2.4,8.4,4,12.4l12,31.4c1.4-9.2,6.5-36,7.3-45.3,2.3-11.1,4.6-22.3,7-33.4l-.4,1.1c1.7-4.3,3.3-8.8,5-13.1v-.8c0,0-1.1-11.5-1.1-11.5l1.6-4.2,2.2-5.6.2-.4c.9-3.4,2.2-8,3.2-11.4v-.4c.1,0,.1-.1.1-.1.4-3.6.8-8.6,1.2-11.6.4-2.1.9-4.3,1.3-6.4,3.5-1.2,6.5-2.7,8.7-4.4,2.3-1.6,3.9-3.5,4.9-5.5,2.7-1.5,5.4-3.1,8.1-4.6,1.8-1,3.5-1.9,5.3-2.9,1.1,4.4,2.2,8.8,3.4,13.1,1.2,4.4,2.4,8.7,3.7,13.1.7,4.3,1.7,10.1,2.5,14.5l1.3,7.4c10.7-2.4,24.2-5.3,34.9-8,4.6-.4,9.2-.9,13.8-1.4,4.6-.9,9.2-1.8,13.8-2.8,4.5-1.2,9-2.4,13.5-3.7,4.5-.7,9-1.4,13.4-2.1,8.6-2,19.1-4.7,26.6-6.9,8.9-1.7,18.9-3.7,27.6-5.8.5-4.8,1.2-10,1.3-15.2v.9c1.6-4.8,3.1-9.5,4.6-14.3v-.2c-.3-5.1-.9-11.8-1.4-16.8v.8c.2-4,.2-8.2.1-12.3,1.2-4.7,2.5-9.4,3.7-14.1l.2-.7c-.4-5.8-.8-11.7-1.3-17.5v.9c0-4.2,0-8.4-.2-12.6,3.7-2.7,7.5-5.4,10.9-7.9,3.4-2.5,6.5-4.7,8.7-6.3ZM726.9,334.3c1.1-1.4,2.3-3,3.8-4.8.4-.5.8-1,1.2-1.5,7.9-1.8,11.4-4.8,10.5-8.8l12.5-.2,2.3-.5,1.8.9.8-1.5h0l1-.2c.1.5.5.8,1.1.7l-2.8,3.4.2.8c.4,1.7,3.6,2.5,9.5,2.5,1.8-.1,4.1-1.4,7.2-3.8,3.2,2.4,5.2,4.4,5.9,6l-.4,1.1-.2.5c.6,2.8,2.6,4.8,5.9,6,3.9.9,7.1,2.7,9.6,5.3.8.8,1.5,1.6,2.1,2.6l.4,1.6-.2.6c-.5.3-1,.7-1.4,1-1.9-.2-4.7-1-8.4-2.4-.7,0-3.2,2.1-7.5,6.2-2.5.2-5-.2-7.4-1-.8.6-3.9,1.4-9.3,2.3-1.6.1-4.3-1-7.9-3.4h-.9c-1.9.2-4.5,1.8-7.9,4.7l-6.5-1.1-2.6.2c-2.6.2-5.5,2-8.6,5.5h-.9c0,0-10.1-4.8-10.1-4.8l1.9-3.4c6.9-1.2,10.2-2.5,9.8-4-.2-.8-1.5-1.5-4.1-2.1-.9.6-2,1-3.3,1.1l-2.6.2-.4-1.6c0-.2,2-2.9,6-8.2ZM719.3,290.1c.1.4.3.8.4,1.2,0-.2,0-.3,0-.5v.6c0,0,0,0,0,0,.8,5.9,1.7,12.2,2.7,18.3-.9.4-1.8.6-2.6.7-.9,0-1.9.4-2.8.9l-4.1-4.3v-.8c2.4.2,4.4-1,6.1-3.4-2-6-4-10.2-6.2-12.6,2.2,0,4.3,0,6.5,0ZM611.7,278c.3-.3.6-.6.8-1,4.4-7,9.2-13.7,14.4-20.1v-.2c.1,0,.4-.8.4-.8,1.5-3.6,3.1-7.2,4.6-10.8t0,0l.4-.9c-.1.3-.3.6-.4.9,2.4-3.4,4.9-6.7,7.3-10,2.5-3.3,5-6.6,7.6-9.9l-.5.7,8.7-9,.6-1,7.5-10-.8,1.2c2.9-3,5.8-6,8.7-9.1h0c0,0,1.4-2.5,1.4-2.5,2.1-3.6,4.2-7.3,6.2-10.9l-1,1.8c2.5-3.2,4.9-6.4,7.3-9.7,1.8-2.3,3.7-4.5,5.5-6.8.4,1.8.8,3.6,1.2,5.4,1,7.9,2.4,15.8,3.9,23.6,1.1,3.8,2.1,7.7,3.2,11.5v-.9c-.1,0,2.2,11.7,2.2,11.7l.2,1.2,3.8,11.4v-.8c-.1,0,2.6,11.6,2.6,11.6v-1.2c0,0,1,12,1,12l.2,1.8.2.4,3.9,9h-.5c-1.6,1-2.3,1.8-2.1,2.6l.2.8c.2,1,.9,1.5,2.1,1.4h1.8c.6,2.5,1.1,5.2,1.7,7.9.3,1,.6,2.1.9,3.1-3.7.8-7.5,1.7-11.2,2.5l-13.6-12h-10.8c-2.4-1.6-3.7-2.7-3.7-3.5-3.6-.3-7.6,0-12,1.1-.8,0-1.7,0-2.6,0l-.2.8c0,0-.2,0-.3,0-1.5-.1-4.2-1.1-8.2-3-2.1-.2-12.4,4-31,12.5,0,3.8-2.9,8.5-8.5,14.2l2,4.9v2.4c-2.6,1-4.4,1.8-5.4,2.5.3-1.3.5-2.5.8-3.7.8-2.3,1.6-4.5,2.3-6.8,1.2-3.6,3.7-10.7,4.9-14.4-2.5-.7-5.1-1.4-7.7-2.1ZM663,296.5c.9,3.4,2,7.8,2.9,11.6-.2,0-.4,0-.6-.1l-2.7-.2c-4.2-.3-10.8-.6-19.7-.8l-1.9-3.3c0-.5.3-.8.9-.7-.1-4.5,4-6.5,12.3-6.1,0-.5-.3-1.3-1-2.4,2.9-2.9,6.7-4.2,11.5-3.8,1.8,1.7,3.3,3.1,4.4,4.1-2.2.4-4.3.8-6.3,1.2v.5ZM667.1,312.1c1.5,3.5,3,7.1,4.4,10.8-1.8-.7-3.2-1.3-4.3-1.7-1.1-.4-1.9-.6-2.3-.6-2.1-.2-5,.9-8.9,3.2h-.9c-.9-.1-2.2-3.9-4-11.4,0-.9.5-1.4,1.8-1.4l14.2,1.1ZM645.1,316.6h-.9c0,0-1.8-1-1.8-1,.6-1,.8-1.8.8-2.3,1.2,0,1.8.7,1.9,1.7v1.6ZM610.9,307.3c.4.6,1.6,1.3,3.5,2.1-1.8,2.5-3.5,4.3-5.2,5.3.6-2.5,1.1-5,1.7-7.4ZM610.5,339.6c1.6.8,3.3,1.2,4.9,1.3v1.6c0,1.3.8,3.7,2.1,7.2-.4,2.6-1.2,3.8-2.6,3.7.1,3.2,1.5,8,4.1,14.5v1.6s-3.4,3.6-3.4,3.6v1.6c1.9,2.1,2.9,4,2.9,5.7v.8c-1.8-.2-2.6.3-2.6,1.4l2.8,3.4v3.2c0,0-2.5,3.7-2.5,3.7,1,2.7,3.1,4.2,6.4,4.4v2.4c-2.2,2.2-3.4,3.9-3.3,5.2-5.3,2.3-7.9,4.2-7.9,5.7,0,.4.7,2.5,2,6.4l-2.7-.2c-2.4-.2-7.5-1.4-15.3-3.6l-2.7-.2c-3.4.2-6.4.4-9.1.7l.5-3.7c.4-1.3,1.5-4.5,2.1-6.6.7-2.2,1.4-4.5,2.2-6.9h0c4.7-2,8.4-3.7,10-4.4.2,0,.4-.2.5-.2l-6.7-2.2c2-1.8,3.9-3.8,5.7-5.9-.3-2.1-1.1-4.2-2.4-6.1.2-2.3.3-3.7.3-4.3s0-.2,0-.2c-.5-.8-.9-1.4-1.3-2.1l.3-1.8,4.6-13.3c1.3-2.8,4-9.3,5.7-13.4v-1.2c.2-1.5.3-3.2.4-5.1,1.7,1.4,3.4,2.5,5.1,3.2ZM570.6,423.8c4.1,1,7.4,2.2,9.9,3.5-.2,3.8-.4,7.6-.6,10.8-1,4.2-2.5,9.8-3.6,14.3.2,0,.4.1.5.2l-.7.4c0-.2,0-.4.1-.5-4.6-1.6-9.1-3.2-13.7-4.9-4.2-1-9.8-2.7-13.4-3.6-9.5-3.9-18.7-8.3-27.6-13.4,0,0,0,0,0,0,3.8-2.9,7.8-5.8,11.6-8.8-.1,0-.3.1-.4.2l1.7-1.2c-.4.3-.9.7-1.3,1,2.9-1.6,5.8-3.3,8.7-5-.1,0-.3.1-.4.2l1.6-.9c-.4.2-.8.5-1.2.7,5-2.1,10.5-4.6,15.5-6.7,1.5-.6,15.3-6.6,26.6-11.5-.4,1.9-.8,3.9-1.2,5.9-.4,2-.8,3.9-1.2,5.5l-.3,4.2c-8.5,1.2-12.7,3.4-12.7,6.4h0c0,.9.7,2,1.9,3.4ZM450.6,366.5l-1.1-.2h.1c-1.4-.3-2.8-.6-4.2-1-.2-.7-.4-1.5-.5-2.2.2-1,.3-2,.3-3.1,0-1.1,0-2.4-.2-3.7,0-.4-.1-.8-.2-1.3l5.9-.5c.9,0,1.7-.2,2.3-.4.2.5.3,1,.5,1.6.1,1-.5,2.8-1.9,5.3.1,1,.9,2.5,2.2,4.6-.1.2-.2.5-.3.7h0c-1.2,0-2.5,0-3.8.1.3,0,.7.1,1,.2ZM451.8,349.6c0,.2,0,.4,0,.6-3.3,0-6,.2-8.3.3.9-2.5,1.8-5,2.7-7.5l9.3-2.9h.2s.1-.1.1-.1l9.9-5.7h0s0,0,0,0c4.3-1.6,8.8-3.1,13.3-4.6l-6,5.9h-8.6c0,0-4.8,2.9-4.8,2.9-2.6,5.8-5.3,9.5-8.1,11.3ZM447.5,339.5c0-.2.2-.4.2-.7,0,0,.1,0,.2,0l2.8-.2-3.2.9ZM466.4,364.1c3.4-4,5.7-6,7-6,3.1-3.5,5.2-5.2,6.2-5.2,1.6,0,3.3-.5,5.1-1.5,1.6-.2,2.8-.5,3.8-1.2.9-.6,1.5-1.5,1.7-2.5l-.4-.3c.4-.4.7-.7,1.1-1.1h2.6c3.7,3.6,7,5.4,10,5.4h.9c1.3-.2,3.4-3.5,6.5-9.8l4.9,5.4h1.7s10.2-.6,10.2-.6c2,2.6,5.1,4.6,9.3,6.2,2.1-1.2,3.2-2.2,3.1-3v-.8c-1.1-1.5-2.1-2.3-2.9-2.3-.1-.9.4-1.4,1.5-1.5h.9c.7,0,2.2,2.6,4.3,7.6.1,1.1-.3,4.7-1.3,10.6-5,1.5-8,2.7-9,3.7l1.5,5.3c-4.2,1-7.6,1.7-10.1,2h0c-.9,0-1.8,0-2.7,0,.2,0,.5.1.7.2,0,0-.1,0-.2,0h-.4c-1.1,0-3.1,3-5.8,9-1,0-4.3-1.6-9.9-4.7h0c-2.5,0-5.2,1.7-7.9,5.2h-1.7c-1,0-1.6-.5-1.9-1.6h0c-1,0-4.3.2-10.1.6-2.3,0-3.9-1.6-4.8-4.6-8.7-4.1-13.4-8.2-14.3-12.5,0-.2,0-.4,0-.6l-.2-1.5h.9ZM537.9,318.1l.2,1.5c-.6,2-2.5,3-5.6,3-6.3,0-9.2,2.2-8.6,6.7l-3.6-1.5c-1.7,0-5.3.7-10.9,2.1h-.9c-2.9-4.1-5.2-6.1-6.7-6.1l-4.9,2.2c.1.9.8,2.2,2.2,3.8.2,1.5-.3,2.3-1.4,2.3h-.9c-1.4,0-5-.8-10.5-2.4h-6.6c6.5-2.1,13-4,19.3-5.7h0s0,0,0,0c0,0,10.6-4.6,10.6-4.6,0,0,10.1-5.5,10.1-5.5l11.2-3.5.5-.2v-.5c0,0,.7-5.1.7-5.1h.5c0,0,3,3.8,3,3.8l-2,4.5c.2,1.3,1.5,3,4.1,5.4ZM549.1,297.8l1.8.8c0,.3-.1,1.3-.5,3h-.9c0-.5-.4-1.3-1.1-2.3.6,0,.8-.5.7-1.5ZM553.7,322l.6,5.3-.4,3.8h-1.7c0-.5-.4-1.3-1.1-2.3,0-.4,0-1.9.3-4.5-.1-1.1-.5-2.1-1.2-3l1-6,1.8.8c0,.5-.2.8-.8.8l1.5,5.3ZM600.8,290c.5-1.4.9-2.8,1.4-4.1.5.7.8,1.3,1.1,1.7.5-.6,1-1.2,1.5-1.7l3.3,6.2c-2-.6-4.5-1.3-7.3-2.1-.9,2.7-1.7,5.4-2.5,7.7-.8,4.8-1.8,10.1-2.6,15.2-.3-.1-.7-.2-1-.4l-6.3-.5c-9.5,1.1-14.2,2.8-14.2,5.2l1,4c.2,4.9,6.3,8.2,18.3,9.9.1,3.2.3,6.7.4,9.6.1-.4.2-.8.3-1.2l-.3,1.8c0-.2,0-.4,0-.6-1.2,4.3-2.4,8.6-3.6,12.9l-2.4,12c-4.2,2-6.6,2.9-7.3,2.9h0c-2.4,0-4.6,3.2-6.5,9.8l-4.5-1.6,1.1-5.3c-1.5-1.9-4-3.7-7.5-5.4l6.3-4.5c-4.4-3.1-6.6-4.9-6.6-5.4,2.1-1.5,3.1-2.5,3.1-3-.2-1.5-1.6-3.8-4.2-6.9.4-6.4,1.3-10.7,2.8-12.8-.3-2.1-1.8-5.4-4.6-9.9-.2-1.6.8-4.9,3.1-9.8-1.4-2.3-2.7-3.6-3.9-3.8-1-8.6-3.2-12.9-6.7-13-5.9-6.7-12.5-11.4-20-14l2.6-10.3s0-.1,0-.1c0,0,0-3,.2-6.1,2.1,1,4.3,2,5.9,2.8,4.6,1.4,9.1,2.9,13.7,4.2,4.1,1.5,8.2,3.1,12.4,4.5,0,0,0,0-.2,0l.6.2c-.2,0-.3-.1-.5-.2,4.3,2,8.5,4.1,12.8,6,5.2,1.4,13.7,3.8,20.8,5.8ZM534.6,232.8v-9.2c.3-.7,2.3-12.1,2.3-12.1,0,0-.2-11.2-.2-12.2l2.8-12h0v-.2l-1.6-12.4v-12.2c0,0,0,0,0,0,.3-1.2,2.6-12,2.6-12.1,0,0-.5-11.2-.6-12.3l1.6-9.2,2.8,8.9,3.5,11.8h0c2.3,5.4,7.2,17.7,9.2,22.7l3.6,11.8v.2s.1.1.1.1l6.9,10.4h0c0,0,0,0,0,0h0c0,0,5.1,10.8,5.1,10.8v-.2s0,.4,0,.4v-.2c0,0,1,12.5,1,12.5v.2s.1.2.1.2l5.2,11h0c0-.1,0,.1,0,.1h0c0-.1,3,11.7,3,11.7v.3c0,0,.3.3.3.3l7.7,9.7v-.4c0,0,.3.8.3.8l-.3-.4.3,1.6c-.8.5-1.2,1-1.2,1.6s0,0,0,.1v.8c.2,1,.8,1.5,1.9,1.5l1,6.3h0c0,0,0,.2,0,.2l2.8,9.7c-3.6-1-7.1-1.8-10.4-2.6-4.2-1.8-8.5-3.6-12.8-5.4-8.9-2.9-18-5.2-27.1-7.1-3.2-1.2-6.5-2.3-9.7-3.5-.4-7.3-.6-15.1-.5-22.1ZM468.7,268.8l1-2.1c0,.1,0,.2,0,.3,2.3-4.1,4.4-8.2,6.6-12.3.7-4.6,1.1-9.4,2.2-14.4,4.1,2.2,7.9,4.6,11.8,6.8,3,1.6,9.3,4.9,12.4,6.4,8.7,3.4,17.4,6.8,26.1,10.1,1,.5,3,1.5,5.2,2.5-.1,2.9-.2,5.9-.2,6.4h0s-2.7,10.2-2.7,10.2c-.3,0-.6-.2-.9-.3-.9.5-2,.7-3.3.7h-1.7s-6.7-6.2-6.7-6.2h-5.1c-4,3.4-6.9,5.2-8.8,5.1h-.9c-2.2-1.3-4.5-2.3-7.2-3.1-5,.7-7.5,1.7-7.3,2.9-3.1,0-5.8.2-8.1.4-1.5-.9-3.1-1.8-4.3-2.5-1.2-.7-2.1-1.2-2.1-1.2,0,0-3-1-5.9-1.9l.3-2.6c.3-2.4.5-4.8.7-7.1-.3.6-.7,1.2-1,1.8ZM504.9,293.5h0s1.8,0,1.8,0v1c.1,0-1.8-1-1.8-1h0ZM504.9,291.9h1.7s.1.9.1.9c-.5-.3-1.1-.6-1.8-.9ZM468.2,281.5l.4-3.7c2.6.9,5.1,1.7,5.5,1.9h0c.4.2,2.6,1.5,4.9,2.8-5,.6-7.5,1.5-7.5,2.9s0,0,0,.1c-1.7-.4-3.1-.8-4.1-1,.3-1,.5-2,.8-2.9ZM455.2,311.2s0,0,0,0c-.1.2-.2.4-.4.6l.3-.6ZM455.7,312.6c1.9,5.3,3.9,9.3,6.2,11.9s4.6,4,7.1,4h.9c2.5-2.1,5.6-4.1,9.6-5.9,6.5-2.6,9.8-4,9.7-4.4l-.2-1.5c-.2-1.4-.9-2.9-2.2-4.6,1.1-5.4,2.9-9.2,5.5-11.3,7.4,0,11.6-1.9,12.5-5.8.8,0,1.5,0,2.2,0l.2,1.5c.2,1.4.9,2.9,2.3,4.6,7.1-.4,11.3-.6,12.8-.6,1.8,3.1,3.1,4.6,4,4.6h.9s3.7-.4,3.7-.4l-.6,4.1-10.8,3.2s-.2,0-.2,0l-10.2,5.4h0s-10.5,4.4-10.5,4.4l-8.4,2.2c-8.2,2.1-17,5-25.1,7.8h0c0,0-9.3,5.1-10,5.6l-3.2.9-.3-1.4c-.2-.9-.9-1.4-2.1-1.4h-.1c1.5-4.2,2.9-8.5,4.4-12.8.8-3.4,1.7-6.7,2.5-10.1ZM260.4,234.4c2.8-3.8,5.6-7.7,8.3-11.6,3.3-7.9,6.3-16,9-24.2-.5.8-.9,1.5-1.4,2.3l1.5-2.6c0,.1,0,.2-.1.3,2.2-3.7,4.6-7.5,6.5-11.4.8-1.7,1.7-3.4,2.5-5.1h.1c1.6-1,2.3-1.8,2.2-2.6l-.3-1.3c2-4,4.1-7.9,6.1-11.9,3.3-7.1,6.7-15.3,9.9-22.3,1.1-4,2.2-7.9,3.4-11.9-.2.3-.3.6-.5.9l.5-1s0,0,0,.1c1.4-2.4,2.8-4.8,4.3-7.1,4.8-7.9,9.1-16.3,13.4-24.5.8-2,1.7-4,2.5-6l.8,5.3v-.2s0,.5,0,.5v-.3s-1.4,11.5-1.4,11.5v.2s0,.2,0,.2l1.3,11.5h0c0,.1,2.3,11.4,2.3,11.4v-.2.3s0-.2,0-.2l-.2,11.4v.2h0c0,.1,2.4,11.5,2.4,11.5.4,11.2.2,23.3-.5,34.5v.2s1.1,11.5,1.1,11.6c0,0,2,11.3,2.1,11.3l-.2,11.8v.5l.5.2,11.2,5.4h0s0,0,0,0c0,0,11,2.5,12,2.7h0c0,0,.1,0,.1,0h0l10.5,6.7s0,0,.1,0c0,0,11.6,4.2,11.6,4.2,8.6,2.1,18.1,4.9,26.4,7.8l8.6,2.9h0c.4.2,10.9,5.8,10.9,5.9,0,0,1.1.3,2.5.8l1.9,15.6c.1,1,.8,1.5,1.9,1.5,1.2,0,1.7-.5,1.5-1.5l-.3-2.3c0-.9-.7-1.4-1.9-1.5-.2-2,0-5.6.6-10.7,1.3.4,2.6.8,3.6,1.1,1,.3,1.7.5,1.9.6h0c0,0,.1,0,.1,0l10.5,6.4h0s.1,0,.1,0l3.8.7c-.5,1.2-1,2.4-1.4,3.5l.3-.9c-1.9,3.5-3.8,7.2-5.7,10.8-2.9,3.1-5.9,6.1-8.8,9.2l-4.4,1.2-5.3.7c0-1.1.1-2.3.1-3.5l-.5-2.3c-1.2-1.4-2.2-2.1-3.1-2.1s0,0-.1,0c-3.6-8.7-6.7-12.9-9.2-12.7-1.4-6.2-6.3-9-14.6-8.2-7.2-3.6-11.8-5.3-13.9-5.1l-3.6.3-5.2,1.3c-1.2-.4-2.7-.6-4.6-.4l-1.8.2c-3.6.3-7.2,2-10.7,5l-8.9.8c-2,5.8-8.3,10.6-18.6,14.4-2.6-.8-4.2-2.3-4.6-4.4-8.8-4.8-13.9-8.3-15.2-10.6-5,1.5-12.8,3.3-23.4,5.3h-5.3c5.2-2.2,7.8-6.5,7.8-13.1s0-1.3,0-1.9c-8.5-10.2-13.7-15.3-15.5-15.4-6.5,1.6-10.9,2.4-13.1,2.3l-4.7-3.1c-.1-1.5.2-2.8.8-3.9,0-.8-1.2-1.8-3.6-2.7l3.2-4.3ZM442.5,364.7c-.3,0-.6-.1-.9-.2-2.3-.5-4.7-1-7-1.5,2.1-2.6,4.2-5.2,6.2-7.8.2,0,.4,0,.6,0l1.1,9.5ZM373.5,301.6h-.9c0,0,.5,0,.5,0l-8.2-1.3c1.2-1.8,2.7-4.1,4.5-6.9,4.5.6,7,1,7.5.9h.9c0,0,4.3-1.3,4.3-1.3l2.4,4.4-11.3,4.1h.4ZM384,277.7l-.5-2.3,2.7-.2.2.8c.2,1-.2,1.6-1.4,1.7h-.9ZM366.2,343.1l.2.2c0,0-.1-.1-.2-.2,2.4,3.3,4.8,6.7,7.2,10.1,2.4,3.4,4.7,6.8,7,10.3l-.5-.7,4.6,8.8c-2.8-1.5-6.3-2.7-10.5-3.8h-.9c-2.5.3-5.8.9-9.7,1.8-.8,0-3.2-1.3-7.3-4.1l-1.8.2c-.6,0-1.7,1.8-3.4,5.1l-2-.6.6-5.6c-.3-1.4-1.3-2.9-2.8-4.5,0-2.8,0-4.4-.2-4.8l-3-5.3-.9-3.9c-.3-1.3,0-3.7,1.1-7.3-2-3.3-3.1-5.6-3.4-6.9,1.6-5.3,3.2-9.6,4.7-13,4,5.1,7.8,10.4,11.4,15.9v.2c.1,0,.7.5.7.5,3,2.6,5.9,5.1,8.8,7.8,0,0,0,0,0,0ZM332.9,386.6h-.9c-1,.2-1.8-.3-2.1-1.3l-.2-.8c-.2-.9.3-1.5,1.4-1.7h.9c0,0,.9,3.8.9,3.8ZM116.6,206.6v.2s-.1-.4-.1-.4c0,0,0,.2.1.2l-2.5-12.2v-.3c0,0-.2-.3-.2-.3-5.7-10.4-11.2-22-16-32.9v-.2c0,0,0,.1,0,.2l-4.1-11.6h0c0-.1-.2-.5-.2-.5l-5.7-10.8-4.9-10.7-2.8-8.7c2.3,2.1,5.3,4.8,6.8,6.1l-.8-.6c2.8,2.9,5.7,5.8,8.5,8.8l.5.5c3.1,2.1,6.3,4.1,9.5,6.1-.4-.5-.8-1.1-1.2-1.7l3.9,3.4c-.9-.6-1.8-1.2-2.7-1.7,2.1,2.8,4.1,5.6,6.2,8.4l1,1.4,2.1,1.5c3.4,2.5,6.8,5,10.2,7.4l8.8,5.5-1.3-1.4,3.2,2.6-1.9-1.2,7,7.7.5.5.6.5,9.1,8.1c6,4.7,15.2,10.9,21.5,15.3l17.6,12.1c2.2-8.8,6.7-25.3,8.6-33.9.6-4.7,1.2-9.4,1.6-14.2-.1-3.5-.3-7-.5-10.5-.5,1.2-1,2.4-1.4,3.6l1.3-5.5c0,.6,0,1.2.1,1.9,1.1-2.7,2.1-5.4,3.1-8.2l1.2-3.1c0-.4,0-6.4,0-7.1v-6.1s-.3,1.5-.3,1.5c.7-4.8,1.3-9.7,1.9-14.6v-.3s-2.1-12.5-2.1-12.5l.6-10.4c-.2.5-.3,1-.5,1.5l.5-1.6h0c1.1-3,2.7-7.8,3.6-10.3l.4-1.2c0-3.1.2-6.2.3-9.3.4-9.2,2-18.1,3.8-27.1l.6-6.1c0-.5.1-1,.2-1.6,0,.5.2,1,.3,1.5l1.1,5.8c1.4,3.7,3,7.4,4.5,11.1,0-.1,0-.3,0-.4l.2,1.1c0-.2-.2-.4-.3-.7-.2,7.8-.3,15.7-.3,23.5v.3c1.1,4.1,2.2,8.3,3.2,12.5l-.2-.5,1.4,10.5v-.2s.2,1.5.2,1.5l-.2-1.3-1.4,11.8h0s.1,1.6.1,1.6l1,11.8v.7c1,4.9,2.5,14.1,3.3,20.3,0-.3.1-.5.1-.7l.2,3.6c0-.8-.2-1.8-.4-2.9-.6,3.1-2.2,11.5-2.5,13.6l1.4,4c.9,2.5,1.8,4.9,2.7,7.4.1-.8.3-1.7.4-2.5l1.1,6.6c-.5-1.4-1-2.8-1.5-4.1-.7,4-1.3,8.1-1.9,12.2,1.5,4.6,3.1,9.3,4.7,13.8,0-.2,0-.3,0-.5l.6,2c-.2-.5-.4-1-.5-1.5.6,3.3,1.3,6.5,2,9.8,0-.2,0-.3,0-.5l.3,1.8c0-.4-.2-.9-.3-1.3.5,5.4,1.2,11.4,1.5,16.8,0,1.2.8,9.5,1.7,18.7-.2-.5-.5-1-.7-1.5-6.7-.3-10.2-3.4-10.6-9.3,1-6.3,1.5-9.8,1.4-10.7v-1c0,0-3.8-6-3.8-6,1.5,0,2-2.2,1.7-6.8-4.5-11.3-10.5-17.1-17.9-17.4h-1.1c0,0-12.2,15-12.2,15,.2,3.1.8,6.4,1.8,9.8-.5,3.4-.7,5.3-.7,5.8l1.5,5.9c-1.7,2.5-3,3.8-4.2,3.7l2,11.8c0,1-4.9,3.3-15,7.1l-7.9-2.3h-1.1c-6.2,1.7-11.2,3.5-15,5.5-1.7-4.3-3.5-8.6-5.3-12.6-.7-2.3-1.4-4.6-2-6.9-1.1-3.6-3.2-10.9-4.3-14.5-5.4,2-11.5,4.1-17.6,6.4l-2.6-4.2c-.9-2.1-3.2-7.5-4.5-10.8ZM134.8,242.8h0c0-.1-.1-.2-.2-.4,0,.1.1.2.2.4ZM134.2,241.4c-.4-1-.7-1.7-.9-2.1-.8-1.6-1.6-3.2-2.5-4.9.3-.1.7-.2,1-.4.8,2.5,1.6,5.1,2.3,7.4ZM191.7,384.6c-1.7.7-3.6,1.4-5.5,2.1-2.7,1-5.5,1.9-7.5,2.7-13.4,3.2-27.6,5-41.3,6.1l-.6.2-13.8,2.7-1,.4-13.4,4.7,2-.8c-14,1.6-28.6,2.7-42.5,4.8-4.3,1.8-8.6,3.8-12.8,5.8.5,0,1-.1,1.6-.2l-4.4,1.5c1-.5,1.9-.9,2.8-1.3-3.8.5-7.5,1-11.3,1.6-.5-3.4-1-7.3-1.4-9.6l-.2-1.6c0-.2-2.4-7.5-2.6-7.9l-1.5-4.6c0,1.2-.2,2.3-.2,3.5l-.5-5.8.8,2.3c.3-4.8.6-9.7.9-14.6l-.4-1.5c-2.6-9.7-5.4-19.4-8.3-29-1.7-4.3-3.4-8.6-5.1-12.9,0,1,0,2,.1,3l-.5-3.8c.1.3.2.5.3.8-.2-4.8-.6-9.6-.8-14.4-1.8-5-4-10-5.7-15l-3.6-6.6c-1.1-2.1-2.3-4.2-3.5-6.2,0,.7.2,1.4.2,2l-.4-2.3c0,0,.1.2.2.3-.5-4.6-1.2-9.2-1.8-13.9-2.1-4.2-4.5-8.4-6.5-13,4.6-.6,9.1-.8,13.5-1.3,3.4-.5,10.4-1.4,13.8-1.9,8.6-2.1,17.1-4.3,25.6-6.4.3,0,.6-.2.9-.2.2,0,.5,0,.8,0l2.6-.3.6-.4c.8-.1,1.6-.3,2.5-.5,1.7-.3,3.6-.7,5.2-1,.8-.2,1.6-.3,2.3-.4.2,0,.3,0,.4-.1,0,0,0,.1,0,.2.3,1,1,1.5,2.2,1.3l4.3-.5c0,0,.2,0,.3-.1.2-.2.6-.5,1.1-1,.2-.2.5-.5.8-.8-.6-.6-1.1-1.1-1.5-1.4,1.1-.4,2.2-.7,3.3-1.1.4-.1.8-.3,1.2-.4.5-.1.9-.3,1.4-.5,1.1-.3,2.3-.6,3.4-.9,3.1-.8,6.3-1.7,9.4-2.5,0,0-.2,0-.2,0h.6c-.1-.1-.3,0-.4,0,4.6-.8,9.3-1.6,13.9-2.5,3.9-1.4,9.9-3.5,15.6-5.5.9,1.8,1.8,3.6,2.5,5.1l.7,1.6c-2,0-3.8,0-5.4.2h-.9c-1,.2-1.5.8-1.3,1.9l.2.8c1.3,1.5,2.4,2.1,3.3,2l2.6-.3c1.1-.1,2.1-.3,3.1-.4,1.5-.2,2.8-.4,4.1-.7,0,0,.1,0,.2,0,2.4,5,4.9,10.3,7.3,15.2l3.1,6.3.4.8c2.5,3.3,5.9,7.8,8.6,11.2-.1-.4-.3-.8-.4-1.1l.8,1.6c-.1-.2-.2-.3-.3-.5,1.5,4.2,3,8.4,4.5,12.6l5.8,12.9.2.5h0c0,0,6,9,6,9l1.9,2.9c1.1,2.2,4.1,8.8,5.8,12.5,0,.1,0,.2.1.3.8,1.9,1.8,4.2,2.8,6.5,1,2.3,2,4.5,2.7,6.4l3.7,6c3.4,5.8,7.8,12.7,11.1,18.1,1.6,4,3.7,9.5,5.3,13.7.2,0,.3-.1.5-.2l-.3.7c0-.2-.1-.3-.2-.5-3.7,1.1-7.4,2.1-11,3.1-1,.3-2,.5-3,.8ZM415.3,422c-8.3-1.7-16.6-2.9-25-4-4-.2-7.9-.4-11.9-.6l.9.2-11.9-1.4-1.2-.2h-2.4l-.9-1.1-1.6.9v.2c.1,0,.1,0,.1,0h-7.2.8c0,.1-11.9-.9-11.9-.9l1.1.3-11.8-2.8-1.8-.4h-.4s-12,1.1-12,1.1c-3.8-.4-7.6-.8-11.3-1.2-4,0-7.9,0-11.9,0,.2,0,.4,0,.6,0h-.6c0,0,0,0,0,0-7.4-1.3-15.5-2.8-23-4-3.6-.2-9.4-.7-11.9-.8-3.4-.8-8-1.7-11.4-2.5l-1.7-.4c-1.5,4.2-3,8.4-4.7,12.5-.8,2.9-1.6,5.8-2.5,8.6-2.7,8.5-6.2,16.7-9.2,25v.6c-.1,0-3.2,11.6-3.2,11.6v-.6c0,.5-2.1,6-3.2,9,0,0,0,0,0,0,0,0,0,.2-.1.3,0,0,0-.2,0-.3-1.1,1.6-2.2,3.2-3.4,4.8-1.7-6.2-3.6-12.3-5.6-18.4-1.5-3.6-3.1-7.2-4.7-10.9.1.5.2.9.3,1.4l-.4-1.7c0,.1,0,.2.1.3-.8-3.5-1.5-6.9-2.3-10.4v.6c0,0-1.8-12-1.8-12l-.2-1.4-.2-.4-4.7-11.1-4.3-11.2.2.8-.2-.9h0s-2.2-10.9-2.2-10.9h0c0,0-.2-4.6-.2-4.6,3.9-1.4,8.4-2.8,12.3-4l-.2-.5c-1.7-4.3-3.9-10-5.5-14.3-4.5-7.6-10-17.5-13.6-24.7-2.9-8.8-5.9-18.1-8.7-26.9l-.2-.3-6-12.2-1.4-4.8c.3,0,.7.1,1.1,0l1.7-.2-.7-2.3-1.7.2-.9.6-2-6.7c-1-4.8-2.1-9.7-3.2-14.5l-.6-1c-.4-.6-.8-1.2-1.2-1.9,3.6.9,7.5,1.5,11.7,1.7l4.2-2.7h2.2c0,.1,2.3,1.2,2.3,1.2.4,4.9,4.7,9,13.1,12.3-.5,3.4-.7,5.3-.7,5.8.1,1.8,1,3.8,2.7,6,.1,2-2.3,3.5-7.4,4.5.3,3.6,2.7,6.6,7.3,9.1.6,7.7.6,13.8.2,18.5,1.2,6.2,2,12.5,2.5,18.7-1.1,4.5-1.7,7.1-1.6,7.7v2c3.2,4,5.2,6.1,6.1,6.1l-.6,6.8c.5,1.3,6.6,9.4,18.4,24.3,8.6,2,16.6,4.7,23.8,8h2.2c1.1.2,5.8-.9,14.2-3.1l6.7,1.3h1.1c12.2-14.1,18.3-22.3,18.1-24.4,3.8-2.3,6.5-5.3,8-9,1,1.1,4.1,1.6,9.3,1.7l3.6-.3c1.6-1,2.3-1.8,2.2-2.6-.4-1.7-4.8-2.3-13.2-2-.3.2-.7.4-.9.6.5-1.9.8-4,.8-6.2s0-1.4,0-2.2l-.3-4.9c-1-13.7-5.6-20.8-13.7-21.1-5-.2-9,.9-11.9,3.3.5,6.4-3.6,10.7-12.3,13.1,1.8,4.6,2.8,7.3,2.8,7.9l-4.1,4.7v2c.3,1.8,1.2,3.8,2.8,6l-4.9,8.5c-8.8-1.1-15.1-1.7-19-1.9h-1.1s-2.3-1.1-2.3-1.1c-3.7-18.4-6.7-28.9-8.9-31.6l.8-3.9,14.4.7c1.5,0,2.2-.5,2.1-1.8v-2c-.1,0-13.8-4.6-13.8-4.6l.4-9.7c-.2-2.9-1.3-8.2-3.4-15.8-.5-17.6.3-26.3,2.5-26.2l14.5.7c4.1,2.8,7.5,4.3,10.3,4.4h1.1c0,0,8.4-6.4,8.4-6.4,4.1.9,7.5,1.3,10.1,1.5l5.3.2c-9.2,4.4-13.3,8.8-12.3,13.2,2.8,2.9,5.8,4.2,9.1,4,5.4,5.9,8.5,8.8,9.3,8.7l2.7-.2c.1-4.8.8-7.2,2-7.4l2.7-.2c2.5-.2,6,.2,10.4,1.5l3.4-1.1,8.9,7.2.4,1.6c.9,4,0,7.8-2.9,11.4l.4,1.6c.4,1.6,2.1,4.1,5.3,7.5.9,4,.4,7.3-1.5,9.7l.2.8c2.2.9,4.3,4.9,6.4,12.2-1.2,2.8-1.6,4.9-1.3,6.5,0,.3.8,1,2.3,2.2l1.6,7c.7,3.1.2,6.4-1.5,9.7-.6,0-1.5-.1-2.9-.5l-12.3,5.9-5.5-.3-5.4.5c-8,3-12.2,5.8-12.7,8.3,1.1,5.1,8.8,8.1,23,9.1,1.8-.2,3.8-.9,5.9-2.1,1,0,4.5.4,10.4,1.5,3.3-.3,5.8-1,7.7-2.3,3.4.2,6.1.2,8.2,0h.9c2.5-.3,4.8-1,6.8-2.3,5.9,2.1,9.8,3.1,11.6,2.9,1.5-.1,4-1.2,7.5-3.1.4,0,2.6.3,6.6,1,6.1-.6,11.8-3.5,17.2-8.9l.2.2c-2.8,8-6.4,18.1-8.9,25.2,7.8,1.9,20.6,5.1,28.7,7,1.2.5,2.5,1.1,3.7,1.6,1.2,1.9,2.4,3.7,3.7,5.6-1.8-.2-3.7-.4-5.5-.5l1.4.3ZM402.3,362.3c-.1.4-.3.8-.4,1.1l-1.4-1.2.7.9-1-1.1c.7,0,1.4.2,2.1.2ZM400.8,358.2h0c1,0,2,.2,3,.3-.4.9-.7,1.9-1,2.8l-1.3.6-.7-3.7ZM418.4,337.4c-3.7,3.9-7.4,7.7-11.1,11.6l-1.2,3.2c-.4,1-.9,2.3-1.4,3.7h-.3c-.4-1-2.2-1.6-5.4-1.6h-.5l-1.8.2c-1,0-1.5.7-1.4,1.7,1.2,1.5,2.3,2.2,3.2,2.1h1.4c0-.1-.2,0-.2,0l-2,.9-5-5.5-.5-.7c-6.2-5.6-12.4-11.1-18.5-16.8l-.7-.7h0c-3.6-2.2-7.2-4.3-10.7-6.5-4.7-5.2-9.5-10.2-14.3-15.3.9-1.2,1.7-2.2,2.5-2.9.8-.7,1.7-1,2.5-1.1.6-3.2,3.3-5.1,7.9-5.5.3,0,.8-.3,1.3-.9l10.8,1.5h.5c0,0,.4,0,.4,0l11.7-4.5h.5s7,13.1,7,13.1l23,5.1c3.7-1.9,5.9-2.9,6.6-3,3.2-4,5.2-8.8,6-14.5l5.9-.8s.1,0,.2,0l1.4-.4c-2.2,5-4.4,10.1-6.5,15.2l.3-.9c-4,7.8-7.8,15.5-11.6,23.3ZM434.2,361.8l-.3,1.1c0,0-.2,0-.3,0l.6-1ZM427.4,386.1c-.6-.5-1.2-.9-1.8-1.4,1.3-2.5,2.5-4.9,3.4-6.5l.8-1.5c0-.2,2.1-6.8,2.4-7.8,2.5.9,4.9,1.8,7.2,2.8,1.4.6,2.8,1.2,4.2,1.8h0l1.3,10.9,1,1.5c1.6-.7,2.4-1.5,2.3-2.2l-1-8.6c.2.1.5.2.7.3l1,.2c2.7.5,5.5,1,8.2,1.5h0c.7.5,1.6,1,2.5,1.4.6,4.9,5,8.8,13.3,11.5h1.7c1.3,0,2.4-.2,3.3-.7h.9c0,.5-.1,1.3-.6,2.3.1,1,.8,1.5,1.9,1.5,1.7,0,6.2,2.1,13.6,6.2l8-4.5c1.1,0,2.9.5,5.3,1.6,0,0,.2,0,.3,0,2.5,1.1,5.1,2.2,7.6,3.3-2,1.8-3.9,3.6-5.8,5.4-4,1.2-8.1,2.3-12,3.5-2.5,2.6-5,5.2-7.4,7.9l-5.9-1.7,2.1.6c-11.9-6.5-23.8-13.8-35.9-19.9.6-1.8,1.8-3.5,3.3-5-.1-1-2.5-1.8-7.1-2.3l-.7,1.5.5,4.6c-3.8-.8-7.6-1.5-11.4-2.2.5.2.9.5,1.4.7l-2.8-.8c0,0-.2-.2-.2-.2.5,0,1.1.2,1.6.3-.9-.5-1.9-1-2.8-1.5-1-1-2-2-3-3l-1.4-1.5ZM664,443.5c-.7,3.8-1.4,7.5-2.2,11.3-1.4,3.2-3.3,7.5-4.8,10.8l.2-.4-3.2,5.1-3.2,5.1-.3.5-.2,1.6-1.1,10.2c.1-.2.3-.4.4-.6l-.6,2.6.2-2c-2,3.2-4.1,6.4-6,9.6-3,7.1-5.8,14.4-8.2,21.8-4.1-5.7-8.5-11.6-12-17.6-2.4-3.5-4.7-7.3-6.9-11-1.2,1.1-8.6,7.4-10.1,8.7-3,3-6,6-9,8.9l-8,9.5c-1.8,1.5-6.2,5.4-8.9,7.7h.2c0,0-.3.2-.3.2,0,0,.1-.1.2-.2l-10.8,6.2-.3.2-.3.3c-8.1,8.7-17.5,17.5-26.3,25.5l-9.7,7.5h-.1c0,0-.3.4-.3.4l-8.5,8.8-8.6,8-7.4,5.4c1.3-2.8,2.9-6.5,3.7-8.3l-.4.9c2-3.8,4-7.6,6-11.4l.6-2.1c.8-2.9,1.6-5.8,2.3-8.8-.4.6-.8,1.1-1.2,1.7l2-4.8c-.3,1-.5,2.1-.8,3.1,2.4-3.3,4.7-6.6,7-9.9,1.6-4.8,3.1-9.7,4.7-14.5l2.5-10-.9,1.6,1.5-3.8-.6,2.2,5.1-9.1.3-.6.3-.7,4.8-11.2.3-.7c4.4-13.1,9.6-31.8,13.5-45-9,.6-26,1.6-34.7,2.3-4.1.8-8.1,1.6-12.2,2.4l-1.8.4c-3.3,1.3-6.7,2.5-10,3.9,1.3,0,2.6.1,3.9.2l-5.6.5c.6-.2,1.2-.5,1.8-.7-2.9-.2-5.8-.3-8.7-.4h-3.3c-.4,0-6.1,1.8-6.7,2l-5.8,1.9,1.5-.2c-4.8.9-9.6,1.8-14.4,2.7h-.2c0,.1-11.2,6-11.2,6l1.7-.4-11.7,3.1c.6,0,1.1,0,1.5,0h-1.7s.1,0,.1,0c-3.4,0-8.3,0-11-.1h-1.3c-3,.9-6,1.7-9,2.6-8.8,2.4-17.9,3.7-27,4.8l-5.9,1.3c-.5.1-1,.2-1.6.4.5-.3.9-.5,1.4-.8l5.2-2.8c3.1-2.5,6.1-5.2,9.2-7.7-.1,0-.3,0-.4.1l1-.6c-.2.2-.4.3-.5.4,7.5-2.3,15-4.6,22.5-7h.2c3.6-2.4,7.2-4.7,10.9-7l-.5.3,9.4-4.6h-.2s1.4-.6,1.4-.6l-1.2.6,2.7-.5h0c11.8.6,45,1.5,54.6,1.9-1.6-1.5-4.2-3.9-7.4-6.8-3.2-2.9-7-6.4-10.8-10,1.3-.7,2.6-1.3,3.8-1.9-.3,0-.5,0-.7,0l3.3-1.3c-.8.4-1.7.8-2.7,1.2,3.1-.4,11.6-1.5,13.7-1.8,2-1.5,4-3.1,6-4.7l2.2.4-.6-.2c13.3,4,27.3,7.9,40.7,11.5,4.7.8,9.3,1.5,14,2.4,4.5,1.3,10,3,14.9,4.5v-.5c1.2-4.5,2.7-10.4,3.9-14.8.3-3.4.6-6.9,1-10.5l6-.3c4.2,2.4,7.3,3.7,9.1,3.9l2.7.2,4.4-2c6.1,3.6,9.7,5.5,10.9,5.6l2.7.2c2.8-2,5.4-3.4,7.9-4.1,12.5,2.2,20.6,4.1,24.4,5.9.9,0,3.5-1.5,7.9-4.9h.9c2.4,2.9,4.6,4.8,6.7,5.7-.5,1.8-.9,3.7-1.4,5.5ZM684.3,422.4c-.1-.8-.7-1.3-1.8-1.5h-.9c0,0-4.4,2.7-4.4,2.7l-9.1-3.1-9-.7c-4.7-5.6-8.6-8.5-11.9-8.8-.6,0-2.4.9-5.3,2.7h-.9c0,0-1.8-1-1.8-1l3.4-5.2c-.1-4.2-2.1-8.8-5.8-13.8,2.8-5,4.2-8,4.2-9.1-1.4-5.2-2-8.2-2.1-8.8l-.2-4.7c0-1.4.5-3,1.6-4.6,6.6,0,9.8-.5,9.8-1.6l-.9-1.6c-7.8-.6-11.7-2.5-11.8-5.7,0-2,1.6-5,5.1-9,0-1.6-1-3.7-2.9-6.5l.8-1.5c1.1,0,3.5.8,7.2,2.1l1.8-.6c3.6-4.4,5.9-6.6,7-6.5,3.8,1.9,6.2,2.8,7.3,2.9h1.8c4,.5,7.7-.4,11-2.4.2.5.4,1.1.6,1.6,1.6,8.2,3.6,18.8,5.4,27.6v.4c.1,0,4.5,13,4.5,13l2.3,13.8c.5,4.8,1,9.7,1.5,14.5,1.2,2.7,2.6,6,3.9,9.1-3.4,2.1-6.8,4.2-10.2,6.4ZM704.4,409c-1.1-1.9-2.2-3.9-3.1-5.5,0,.4.2.7.2,1.1l-.5-1.6c0,.2.2.3.3.5-1-4.3-2-8.6-3-12.9l-4.2-13.7v-.5c-.1,0-.2,0-.2,0l-6.2-12.7c-.8-2.5-3-9.2-4.2-13.1-1.2-4-2.9-9.8-4-13.7l-.9-2c1.5-1.2,3-2.8,4.3-4.6,1.4-1.8,2.6-3.9,3.8-6.3v-3.2c-.4-1.1-2-2.2-4.7-3.5l-8.5,6.2c-1.7-3.8-3.5-7.7-5-11.2h.8c1.2.2,1.8-.3,1.7-1.4,0-1.1-1.3-1.9-3.8-2.5-1-3.7-2.1-8-2.9-11.5-.2,0-.4,0-.5,0l.4-.6c0,.2,0,.4.1.5,2.1-.3,4.2-.7,6.3-1,.8.7,1.4,1,1.7,1l2.7.2c.5,0,1.5-.7,3.1-2.3.1,0,.3,0,.4,0,.9-.2,1.8-.4,2.7-.7l.9,3.6c-2.3,2.4-3.5,3.9-3.4,4.4,1.9,4,2.9,6.4,2.9,7.3-2.4,0-3.6.8-3.5,2.1,1,1.6,1.9,2.5,2.8,2.6l4.5.4,4.5-.4c4,5,8,8.5,12,10.4l3.6.3c.9-.2,1.8-.5,2.6-.9-2.7,6-5.5,14.2-8.2,24.4l1.5,6.3c.4,1.6-.3,4-1.9,7.4.4,1.6,1.8,2.8,4.4,3.7l.4,5.6,2.4,10.2c6,6.2,10.8,11.4,14.5,15.6l-2.2.8-.8.3-.3.3c-4.1,3.4-9.1,7.3-13.5,10.8ZM836.7,437.1c-3.5,0-10.5.1-13.9.2-9.3,1.1-18.5,2.2-27.8,3.3-2.7,0-9.5.5-13.6.8-4.7.9-9.4,1.7-14,2.7-4.3.6-8.7,1.2-13,1.8-4.7.3-9.5.5-14.2.8-5.2,1.2-14,3-21.1,4.5-.5-2.8-1-5.5-1.5-8-1.5-4.5-3-9.1-4.5-13.6-1.6-4.7-3.2-9.4-4.8-14.1-.3-.5-.5-1-.8-1.5,1.6-1.1,3.2-2.1,4.9-3.2,3.1-2.1,6.3-4.1,9.4-6.2.9-.2,3-.7,5.2-1.3,1,1.2,1.7,2.2,2.2,3,.5.8.8,1.4.9,1.8,10.9,6.9,20.8,11,29.7,12.1h.9c1.8-.2,3.9-1.2,6.5-3,4.3.7,6.6,1.6,6.9,2.7,3.9-1.4,6.1-2.1,6.7-2.1,7,3.2,10.7,4.8,11,4.8,1.2,0,3.9-3.5,8.3-10.3h.9c0,0,3,1.3,3,1.3l6.2-.5,7-8.6c4.7-.4,6.9-6.4,6.5-18.2l-.9-3.9c-1.1-4.7-4-6.9-8.7-6.5l-2.6.2c-1.2,0-2,1.8-2.4,5-1.3,4.1-4.7,7.3-10.3,9.6,1.2,5.3-1.7,8.2-8.7,8.7l-7.8,8.6c-3.5-2.4-6.9-4-10.1-4.8-2.5.2-5.4,1.8-8.8,4.7h-.9c-5.9-4.8-10-7.2-12.4-7-2,.1-4.3-.9-7.1-3-2.3-1.8-4.8-4.2-7.6-7.5-.5-.6-1-1.2-1.6-1.8-5.8-4.5-9.1-8.5-10-12.1,1.8-1.8,4-2.7,6.5-2.9,2-5,3.5-7.5,4.5-7.6,1.7,1.5,3.9,2.1,6.7,1.9h1.8c2.9-.4,5.7-1.4,8.2-3.2.3,0,1.5.2,3.7.5l.9,3.9c1.2,1.2,2.2,2.1,3,2.5.5.2.8.3,1.1.3,0,0,0,0,0,0h1.8c.3-.9.5-1.6.8-2.3,1.8-4.6,3.5-7,5.1-7.2l4.7,1.9,5.2,2.1c.7,0,1.7-.5,3-1.2,1.3-.8,3-1.9,4.9-3.4l.2.8c1.3,0,2.9-.3,4.8-.6,1.9-.3,4-.6,6.5-1.1,4,1.1,7.1,2,9.3,2.9,1,.4,1.8.7,2.4,1l3.5-.3c2.7-.2,4.9-2.7,6.5-7.4,0,0,0-.2,0-.2,0,0,0,0,0-.1.8-2.4,1.5-5.4,2-8.9-1.4-2.6-2.4-4.4-2.9-5.3-.2-.4-.3-.7-.4-.8l-.2-.8c4.6-.9,6.7-1.9,6.5-2.9l-.2-.8c-2-.4-4-1.1-6-2.1-2.8-1.3-5.5-3.2-8.3-5.6-1.3-2.3-2.4-4.2-3.3-5.6-1.6-2.4-2.7-3.6-3.3-3.5-10.8-8.6-17.3-13.2-19.3-13.7-4.5-.8-10.5-3.3-17.9-7.4-2,.2-4.6.6-7.7,1.4l-14.5-.5c-2,1.1-6.5,2.2-13.5,3.5-.7.7-1.4,1.4-2.1,2,0,0,0,0,0,0h0c-.3-5.3-.4-10.7-.4-15.8h0c2.1,0,4.3.1,6.4.2h.6c0,0,14-1,14-1l1-.3,13.9-2.9-2,.5c14,0,28.6.7,42.6.2,4.5-1.2,9-2.6,13.5-4-.5,0-.9,0-1.4,0l4.2-.9c-.9.3-1.9.6-2.9.9,3.8,0,7.6-.2,11.3-.3,0,3.5.1,7.5.2,9.8v1.5s.2.8.2.8c.5,3,1.5,8.4,2.3,12.2.2-1.1.4-2.2.6-3.3v5.4c-.3-.6-.4-1.4-.6-2.2-.7,4.2-1.4,8.5-2.1,12.7,0,.5-.2,1.1-.3,1.6l.2,1.4c.3,2.1.6,4.2.9,6.3h0c.6,4.2,1.2,8.4,1.9,12.5.6,3.6,1.2,7.3,1.8,10.9,0,0,0,.1,0,.2,1.1,4.5,2.2,8.9,3.4,13.3,0-.9.1-1.9.2-2.8v3.5c0-.2-.1-.5-.2-.7-.3,4.8-.5,9.6-.8,14.4,1.1,5.1,2.6,10.4,3.7,15.5l2.7,7c.8,2.2,1.8,4.5,2.6,6.7v-2,2.2c0,0,0-.2,0-.2,0,4.7.2,9.3.2,14,1.5,4.4,3.4,8.9,4.7,13.8-4.7,0-9.1-.3-13.6-.3Z"/>
</svg>